<svg width="24" height="24" viewBox="0 0 24 24" fill="none" xmlns="http://www.w3.org/2000/svg">
<g clip-path="url(#clip0_2_1171)">
<path d="M11.8298 23.3652C18.2545 23.3652 23.4628 18.1569 23.4628 11.7321C23.4628 5.3074 18.2545 0.0991211 11.8298 0.0991211C5.40506 0.0991211 0.196777 5.3074 0.196777 11.7321C0.196777 18.1569 5.40506 23.3652 11.8298 23.3652Z" fill="#039BE5"/>
<path d="M5.5198 11.4797L16.736 7.1551C17.2566 6.96703 17.7112 7.2821 17.5425 8.06926L17.5435 8.06829L15.6338 17.0655C15.4922 17.7033 15.1132 17.8584 14.5829 17.5579L11.6747 15.4145L10.2719 16.7659C10.1168 16.921 9.98592 17.0519 9.6854 17.0519L9.89189 14.0923L15.2819 9.22287C15.5165 9.01638 15.2295 8.90005 14.9203 9.10557L8.25939 13.2993L5.38796 12.4035C4.76463 12.2058 4.75106 11.7802 5.5198 11.4797V11.4797Z" fill="white"/>
</g>
<defs>
<clipPath id="clip0_2_1171">
<rect width="23.266" height="23.266" fill="white" transform="translate(0.196777 0.0991211)"/>
</clipPath>
</defs>
</svg>
