<svg width="25" height="24" viewBox="0 0 25 24" fill="none" xmlns="http://www.w3.org/2000/svg">
<g clip-path="url(#clip0_2_1167)">
<path d="M24.154 4.81041C23.2888 5.18994 22.3669 5.4415 21.4057 5.56365C22.3945 4.97327 23.1492 4.04554 23.504 2.92732C22.5821 3.47698 21.5642 3.86523 20.4794 4.08189C19.604 3.1498 18.3564 2.57251 16.9953 2.57251C14.3546 2.57251 12.2287 4.71589 12.2287 7.3435C12.2287 7.72157 12.2607 8.08511 12.3392 8.43119C8.37379 8.23779 4.86498 6.33725 2.50784 3.44208C2.09632 4.15605 1.85493 4.97327 1.85493 5.85302C1.85493 7.50491 2.7056 8.96922 3.9736 9.81697C3.20727 9.80243 2.45549 9.57995 1.81858 9.2295C1.81858 9.24405 1.81858 9.26295 1.81858 9.28185C1.81858 11.5997 3.47192 13.525 5.64003 13.9685C5.25178 14.0747 4.82862 14.1255 4.38948 14.1255C4.08411 14.1255 3.77584 14.1081 3.48646 14.0441C4.10447 15.933 5.85815 17.3217 7.94337 17.3668C6.32056 18.6363 4.26006 19.4011 2.02943 19.4011C1.63827 19.4011 1.2631 19.3837 0.887939 19.3357C3.00079 20.6982 5.50479 21.4762 8.20511 21.4762C16.9822 21.4762 21.7808 14.2055 21.7808 7.90334C21.7808 7.69249 21.7736 7.48891 21.7634 7.28679C22.71 6.61498 23.5054 5.77595 24.154 4.81041Z" fill="#03A9F4"/>
</g>
<defs>
<clipPath id="clip0_2_1167">
<rect width="23.266" height="23.266" fill="white" transform="translate(0.887939 0.391724)"/>
</clipPath>
</defs>
</svg>
