<svg width="40" height="41" viewBox="0 0 40 41" fill="none" xmlns="http://www.w3.org/2000/svg">
<path d="M0 20.9736C0 9.92794 8.95431 0.973633 20 0.973633V0.973633C31.0457 0.973633 40 9.92794 40 20.9736V20.9736C40 32.0193 31.0457 40.9736 20 40.9736V40.9736C8.95431 40.9736 0 32.0193 0 20.9736V20.9736Z" fill="#BB0000"/>
<path d="M29.58 16.6336C30 18.2336 30 21.5736 30 21.5736C30 21.5736 30 24.9136 29.58 26.5136C29.36 27.3936 28.68 28.0936 27.82 28.3336C26.26 28.7736 20 28.7736 20 28.7736C20 28.7736 13.74 28.7736 12.18 28.3336C11.32 28.0936 10.64 27.3936 10.42 26.5136C10 24.9136 10 21.5736 10 21.5736C10 21.5736 10 18.2336 10.42 16.6336C10.64 15.7536 11.32 15.0536 12.18 14.8136C13.74 14.3936 20 14.3936 20 14.3936C20 14.3936 26.26 14.3936 27.82 14.8136C28.68 15.0536 29.36 15.7536 29.58 16.6336ZM18.12 25.0136L23.12 21.8936L18.12 18.7736V25.0136Z" fill="#E5E7EB"/>
</svg>
