<svg width="252" height="253" viewBox="0 0 252 253" fill="none" xmlns="http://www.w3.org/2000/svg">
<path d="M123.954 235.415C180.319 235.415 226.011 189.36 226.011 132.548C226.011 75.7364 180.319 29.6814 123.954 29.6814C67.5901 29.6814 21.8977 75.7364 21.8977 132.548C21.8977 189.36 67.5901 235.415 123.954 235.415Z" fill="url(#paint0_linear_962_17210)"/>
<path d="M174.561 43.1338H71.7953C67.9715 43.1338 64.3043 44.6648 61.6005 47.3901C58.8967 50.1154 57.3777 53.8117 57.3777 57.6658V175.698H57.5539V217.146C57.5538 218.747 57.9605 220.321 58.7354 221.718C59.5103 223.114 60.6274 224.288 61.9801 225.126C63.3329 225.964 64.8761 226.438 66.4626 226.504C68.049 226.57 69.6258 226.225 71.0423 225.502L118.444 201.282C119.736 200.63 121.16 200.29 122.605 200.29C124.05 200.29 125.475 200.63 126.766 201.282L175.626 225.68C177.043 226.388 178.617 226.719 180.197 226.643C181.777 226.566 183.312 226.084 184.655 225.243C185.999 224.401 187.107 223.227 187.875 221.833C188.643 220.439 189.044 218.87 189.042 217.276L188.914 175.698V57.6254C188.903 53.7895 187.389 50.1133 184.7 47.3986C182.011 44.6839 178.366 43.1508 174.561 43.1338Z" fill="url(#paint1_linear_962_17210)"/>
<path d="M239 81.3611C239.003 84.5025 237.873 87.5379 235.82 89.9013C233.767 92.2647 230.931 93.7949 227.841 94.2064C227.276 94.279 226.708 94.3163 226.138 94.318H183.378C182.451 94.3159 181.525 94.2389 180.609 94.0878C176.679 93.4042 173.138 91.2793 170.669 88.1223C168.199 84.9652 166.976 80.9991 167.234 76.9872C167.491 72.9754 169.212 69.2015 172.065 66.3918C174.918 63.5822 178.701 61.9355 182.686 61.7686C184.752 57.2482 188.219 53.5274 192.566 51.1673C196.914 48.8073 201.904 47.936 206.785 48.685C211.667 49.434 216.174 51.7626 219.627 55.3196C223.081 58.8766 225.293 63.469 225.93 68.4041H226.124C227.814 68.4013 229.488 68.7345 231.05 69.3844C232.612 70.0343 234.032 70.9883 235.228 72.1917C236.423 73.3951 237.372 74.8244 238.019 76.3978C238.667 77.9712 239 79.6578 239 81.3611Z" fill="url(#paint2_linear_962_17210)"/>
<path d="M21.564 55.9838C21.564 58.5745 22.585 61.0591 24.4025 62.891C26.22 64.7229 28.685 65.7521 31.2554 65.7521H63.4308C66.601 65.7352 69.6393 64.4713 71.8986 62.2297C74.158 59.9882 75.4596 56.946 75.5264 53.7513C75.5932 50.5566 74.4198 47.4619 72.2562 45.1264C70.0925 42.7908 67.1097 41.3991 63.943 41.2476C62.3812 37.8569 59.7704 35.0683 56.5024 33.3004C53.2345 31.5325 49.4857 30.8807 45.819 31.443C42.1523 32.0052 38.7655 33.7511 36.167 36.4185C33.5684 39.0859 31.8984 42.531 31.4076 46.2364H31.2623C28.6944 46.2346 26.2307 47.26 24.4123 49.0876C22.5939 50.9152 21.5695 53.3955 21.564 55.9838Z" fill="url(#paint3_linear_962_17210)"/>
<g filter="url(#filter0_f_962_17210)">
<ellipse cx="127.435" cy="152.707" rx="46.3925" ry="10.0201" fill="#FF7C86" fill-opacity="0.39"/>
</g>
<path d="M126.99 66.2722L138.396 89.5638C138.735 90.2543 139.234 90.8517 139.853 91.3045C140.471 91.7574 141.189 92.0521 141.945 92.1634L167.44 95.869C168.303 96.0023 169.113 96.3745 169.778 96.9442C170.444 97.5138 170.94 98.2586 171.211 99.0956C171.482 99.9325 171.516 100.829 171.312 101.684C171.107 102.54 170.67 103.322 170.051 103.942L151.628 122.067C151.081 122.604 150.671 123.268 150.435 124.001C150.199 124.734 150.144 125.514 150.275 126.273L154.632 151.866C154.782 152.741 154.685 153.64 154.353 154.463C154.021 155.285 153.468 155.998 152.755 156.52C152.042 157.041 151.199 157.352 150.32 157.415C149.442 157.479 148.563 157.293 147.784 156.879L124.98 144.769C124.303 144.411 123.55 144.224 122.785 144.224C122.021 144.224 121.268 144.411 120.591 144.769L97.7869 156.879C97.0078 157.291 96.13 157.475 95.2527 157.41C94.3754 157.345 93.5336 157.035 92.8221 156.513C92.1107 155.992 91.5581 155.28 91.2267 154.459C90.8952 153.638 90.7982 152.74 90.9465 151.866L95.2958 126.273C95.4265 125.514 95.3714 124.734 95.1356 124.001C94.8997 123.268 94.4901 122.604 93.9422 122.067L75.5197 103.942C74.9002 103.322 74.4638 102.54 74.259 101.684C74.0542 100.829 74.0891 99.9325 74.3598 99.0956C74.6305 98.2586 75.1263 97.5138 75.7922 96.9442C76.458 96.3745 77.2676 96.0023 78.1309 95.869L103.626 92.1391C104.382 92.0279 105.1 91.7331 105.718 91.2803C106.336 90.8275 106.836 90.2301 107.174 89.5395L118.58 66.248C118.977 65.4669 119.581 64.8118 120.324 64.3551C121.068 63.8984 121.922 63.658 122.793 63.6605C123.663 63.663 124.516 63.9084 125.257 64.3693C125.998 64.8302 126.598 65.4888 126.99 66.2722Z" fill="url(#paint4_linear_962_17210)"/>
<path d="M13 180.876C12.9985 184.005 14.1254 187.027 16.1707 189.38C18.2161 191.733 21.0404 193.256 24.1174 193.666C24.6771 193.744 25.2414 193.784 25.8065 193.784H68.3794C69.307 193.783 70.233 193.706 71.1483 193.554C75.0844 192.894 78.6367 190.783 81.116 187.632C83.5953 184.481 84.8249 180.513 84.5662 176.5C84.3075 172.487 82.5789 168.713 79.7158 165.912C76.8527 163.111 73.0593 161.481 69.0716 161.34C67.0123 156.841 63.5583 153.139 59.2301 150.791C54.9018 148.443 49.9338 147.577 45.0746 148.323C40.2153 149.068 35.7281 151.385 32.289 154.925C28.8499 158.465 26.6453 163.035 26.0072 167.947H25.8065C24.123 167.947 22.456 168.282 20.9009 168.932C19.3458 169.582 17.9331 170.534 16.7436 171.735C15.5541 172.936 14.6112 174.362 13.9689 175.93C13.3265 177.499 12.9973 179.179 13 180.876Z" fill="url(#paint5_linear_962_17210)"/>
<path d="M204.767 109.55C204.486 108.438 205.504 107.436 206.6 107.747L213.948 109.828C215.044 110.139 215.395 111.528 214.58 112.329L209.118 117.703C208.304 118.504 206.934 118.116 206.653 117.005L204.767 109.55Z" fill="#FFBEBD"/>
<path d="M34.6613 109.55C34.3801 108.438 35.3985 107.436 36.4943 107.747L43.8423 109.828C44.938 110.139 45.2893 111.528 44.4747 112.329L39.0124 117.703C38.1978 118.504 36.8282 118.116 36.547 117.005L34.6613 109.55Z" fill="#FFBEBD"/>
<path d="M91.8282 20.772C92.2645 18.9501 94.8565 18.9501 95.2929 20.772L96.7436 26.8296C96.8993 27.4795 97.4056 27.9876 98.0549 28.1456L104.12 29.6213C105.934 30.0626 105.934 32.6418 104.12 33.083L98.0549 34.5587C97.4056 34.7167 96.8993 35.2248 96.7436 35.8747L95.2929 41.9323C94.8565 43.7543 92.2645 43.7542 91.8282 41.9323L90.3774 35.8747C90.2218 35.2248 89.7155 34.7167 89.0662 34.5587L83.001 33.083C81.1874 32.6418 81.1874 30.0626 83.001 29.6213L89.0662 28.1456C89.7155 27.9876 90.2218 27.4795 90.3774 26.8296L91.8282 20.772Z" fill="#FFBEBD"/>
<path d="M131.476 216.91C131.476 219.173 129.658 220.993 127.435 220.993C125.211 220.993 123.393 219.173 123.393 216.91C123.393 214.647 125.211 212.828 127.435 212.828C129.658 212.828 131.476 214.647 131.476 216.91Z" stroke="#FFBEBD" stroke-width="2.2267"/>
<path d="M203.76 183.321C204.196 181.499 206.788 181.499 207.224 183.321L208.675 189.379C208.831 190.029 209.337 190.537 209.986 190.695L216.051 192.17C217.865 192.612 217.865 195.191 216.051 195.632L209.986 197.108C209.337 197.266 208.831 197.774 208.675 198.424L207.224 204.481C206.788 206.303 204.196 206.303 203.76 204.481L202.309 198.424C202.153 197.774 201.647 197.266 200.998 197.108L194.932 195.632C193.119 195.191 193.119 192.612 194.932 192.17L200.998 190.695C201.647 190.537 202.153 190.029 202.309 189.379L203.76 183.321Z" fill="#FFBEBD"/>
<path d="M214.688 157.532C214.688 159.795 212.87 161.614 210.646 161.614C208.423 161.614 206.605 159.795 206.605 157.532C206.605 155.269 208.423 153.45 210.646 153.45C212.87 153.45 214.688 155.269 214.688 157.532Z" stroke="#FC9999" stroke-width="2.2267"/>
<defs>
<filter id="filter0_f_962_17210" x="62.4864" y="124.131" width="129.897" height="57.1519" filterUnits="userSpaceOnUse" color-interpolation-filters="sRGB">
<feFlood flood-opacity="0" result="BackgroundImageFix"/>
<feBlend mode="normal" in="SourceGraphic" in2="BackgroundImageFix" result="shape"/>
<feGaussianBlur stdDeviation="9.27791" result="effect1_foregroundBlur_962_17210"/>
</filter>
<linearGradient id="paint0_linear_962_17210" x1="123.168" y1="-3.81456" x2="125.292" y2="357.438" gradientUnits="userSpaceOnUse">
<stop stop-color="#FFE1E1" stop-opacity="0"/>
<stop offset="1" stop-color="#FFE1E0"/>
</linearGradient>
<linearGradient id="paint1_linear_962_17210" x1="221.075" y1="236.105" x2="62.1108" y2="94.3984" gradientUnits="userSpaceOnUse">
<stop stop-color="#FF9999"/>
<stop offset="1" stop-color="#FFE7DA"/>
</linearGradient>
<linearGradient id="paint2_linear_962_17210" x1="225.374" y1="114.111" x2="189.223" y2="48.6646" gradientUnits="userSpaceOnUse">
<stop stop-color="#FFBEBD"/>
<stop offset="1" stop-color="#FFF6F5"/>
</linearGradient>
<linearGradient id="paint3_linear_962_17210" x1="65.2881" y1="80.6337" x2="38.1032" y2="31.4352" gradientUnits="userSpaceOnUse">
<stop stop-color="#FFBEBD"/>
<stop offset="1" stop-color="#FFF6F5"/>
</linearGradient>
<linearGradient id="paint4_linear_962_17210" x1="81.9791" y1="88.817" x2="256.601" y2="156.407" gradientUnits="userSpaceOnUse">
<stop stop-color="#FFDEAC"/>
<stop offset="0.70369" stop-color="#FF426F"/>
</linearGradient>
<linearGradient id="paint5_linear_962_17210" x1="71.0125" y1="213.503" x2="35.016" y2="148.273" gradientUnits="userSpaceOnUse">
<stop stop-color="#FFBEBD"/>
<stop offset="1" stop-color="#FFF6F5"/>
</linearGradient>
</defs>
</svg>
