<svg width="252" height="253" viewBox="0 0 252 253" fill="none" xmlns="http://www.w3.org/2000/svg">
<path d="M129.62 242.454C187.566 242.454 234.541 195.479 234.541 137.533C234.541 79.5866 187.566 32.6119 129.62 32.6119C71.673 32.6119 24.698 79.5866 24.698 137.533C24.698 195.479 71.673 242.454 129.62 242.454Z" fill="url(#paint0_linear_1111_10987)"/>
<path fill-rule="evenodd" clip-rule="evenodd" d="M127.535 187.756C127.535 183.422 131.049 179.909 135.383 179.909H180.914C187.134 179.909 193.081 181.75 197.66 185.116C202.237 188.48 205.87 193.77 205.87 200.337C205.87 206.902 202.238 212.194 197.662 215.56C193.084 218.928 187.137 220.772 180.914 220.772H72.7272C68.3933 220.772 64.8799 217.259 64.8799 212.925C64.8799 208.591 68.3933 205.078 72.7272 205.078H180.914C184.141 205.078 186.748 204.105 188.362 202.918C189.978 201.729 190.175 200.726 190.175 200.337C190.175 199.949 189.979 198.949 188.364 197.761C186.751 196.576 184.143 195.604 180.914 195.604L134.924 194.063C130.59 194.063 127.535 192.09 127.535 187.756Z" fill="url(#paint1_linear_1111_10987)"/>
<path fill-rule="evenodd" clip-rule="evenodd" d="M198.956 94.04C199.989 90.1803 203.486 87.496 207.481 87.496H243.175C248.049 87.496 252 91.447 252 96.3208C252 101.195 248.049 105.146 243.175 105.146H214.256L203.959 143.63C202.699 148.338 197.861 151.134 193.153 149.874C188.445 148.615 185.649 143.777 186.909 139.068L198.956 94.04Z" fill="url(#paint2_linear_1111_10987)"/>
<path d="M191.33 61.0143H84.2646L75.8184 79.4754H182.876L191.33 61.0143Z" fill="url(#paint3_linear_1111_10987)"/>
<path d="M137.392 58.2245H67.3643L75.8182 79.4752H145.838L137.392 58.2245Z" fill="url(#paint4_linear_1111_10987)"/>
<path d="M192.76 58.2245H154.292L145.838 79.4752H184.306L192.76 58.2245Z" fill="url(#paint5_linear_1111_10987)"/>
<path d="M184.314 79.4751H114.286V149.502H184.314V79.4751Z" fill="url(#paint6_linear_1111_10987)"/>
<path d="M145.846 79.4751H75.8184V149.502H145.846V79.4751Z" fill="url(#paint7_linear_1111_10987)"/>
<path d="M98.8622 247.907C109.421 247.907 117.98 239.348 117.98 228.789C117.98 218.231 109.421 209.671 98.8622 209.671C88.3036 209.671 79.7441 218.231 79.7441 228.789C79.7441 239.348 88.3036 247.907 98.8622 247.907Z" fill="#6FCFE4"/>
<path d="M193.742 111.161H61.9938C52.118 111.161 44.8231 119.538 47.0564 128.301L57.79 179.843C59.4051 186.172 65.5949 190.662 72.7275 190.662L188.894 198.179L208.71 128.324C213.592 114.023 203.641 111.161 193.742 111.161Z" fill="url(#paint8_linear_1111_10987)"/>
<path d="M98.3345 238.427C103.639 238.427 107.939 234.127 107.939 228.822C107.939 223.518 103.639 219.218 98.3345 219.218C93.0299 219.218 88.7297 223.518 88.7297 228.822C88.7297 234.127 93.0299 238.427 98.3345 238.427Z" fill="url(#paint9_linear_1111_10987)"/>
<mask id="mask0_1111_10987" style="mask-type:alpha" maskUnits="userSpaceOnUse" x="46" y="111" width="164" height="88">
<path d="M193.742 111.161H61.9938C52.118 111.161 44.8231 119.538 47.0564 128.301L57.79 179.843C59.4051 186.172 65.5949 190.662 72.7275 190.662L188.894 198.179L208.71 128.324C210.943 119.538 203.641 111.161 193.742 111.161Z" fill="url(#paint10_linear_1111_10987)"/>
</mask>
<g mask="url(#mask0_1111_10987)">
<rect width="10.9767" height="50.9564" rx="5.48835" transform="matrix(0.999966 0.00825462 -0.0123003 0.999924 138.012 150.745)" fill="url(#paint11_linear_1111_10987)"/>
<rect width="10.9766" height="193.276" rx="5" transform="matrix(0.00661531 0.999978 -0.999997 0.00256954 233.533 114.229)" fill="#61C2D8"/>
<rect width="10.9767" height="50.9564" rx="5.48835" transform="matrix(0.999966 0.00825462 -0.0123003 0.999924 169.035 150.877)" fill="url(#paint12_linear_1111_10987)"/>
<rect width="10.9767" height="50.9564" rx="5.48835" transform="matrix(0.999966 0.00825462 -0.0123003 0.999924 106.99 150.613)" fill="url(#paint13_linear_1111_10987)"/>
<rect width="10.9767" height="50.9564" rx="5.48835" transform="matrix(0.999966 0.00825462 -0.0123003 0.999924 75.6355 150.613)" fill="url(#paint14_linear_1111_10987)"/>
</g>
<path fill-rule="evenodd" clip-rule="evenodd" d="M167.722 7.99119C166.385 5.64835 163.904 4.54628 162.18 5.52963C160.457 6.51299 160.143 9.20939 161.479 11.5522C161.517 11.6185 161.556 11.6838 161.595 11.7481C160.719 11.9279 159.896 12.7846 159.573 13.9649C159.157 15.4839 159.728 16.9636 160.848 17.2698C161.968 17.5761 163.212 16.5929 163.628 15.0739C163.742 14.6578 163.781 14.2446 163.756 13.8577C164.86 14.4618 166.058 14.5628 167.02 14.0138C167.868 13.5305 168.374 12.6335 168.512 11.568C168.743 11.6879 168.994 11.7872 169.263 11.8606C170.782 12.2761 172.261 11.7051 172.568 10.5854C172.874 9.46571 171.891 8.2212 170.372 7.80574C169.394 7.53827 168.432 7.67961 167.789 8.11299C167.767 8.07229 167.745 8.03169 167.722 7.99119Z" fill="url(#paint15_linear_1111_10987)"/>
<path fill-rule="evenodd" clip-rule="evenodd" d="M88.614 17.1692C87.8298 17.9685 86.8423 18.3873 85.8454 18.2329C84.6905 18.054 83.7804 17.1458 83.3116 15.8849C83.0992 16.172 82.8314 16.4408 82.5138 16.6731C81.2429 17.6031 79.6569 17.5976 78.9714 16.6608C78.2859 15.724 78.7604 14.2107 80.0313 13.2807C81.0402 12.5424 82.2478 12.3937 83.0457 12.8324C83.4664 10.1796 85.3852 8.27756 87.3404 8.58038C89.2685 8.879 90.5142 11.2106 90.1633 13.8221C90.9195 13.9028 91.7324 14.3867 92.3157 15.1838C93.2457 16.4547 93.2402 18.0407 92.3034 18.7262C91.3666 19.4118 89.8533 18.9373 88.9232 17.6664C88.8051 17.5049 88.702 17.3383 88.614 17.1692Z" fill="url(#paint16_linear_1111_10987)"/>
<path d="M17.1767 121.569C17.6942 119.425 20.7438 119.425 21.2614 121.569L22.655 127.342C22.8399 128.108 23.4382 128.707 24.2043 128.892L29.9773 130.285C32.1213 130.803 32.1213 133.852 29.9773 134.37L24.2043 135.763C23.4382 135.948 22.8399 136.547 22.655 137.313L21.2614 143.086C20.7438 145.23 17.6942 145.23 17.1767 143.086L15.7831 137.313C15.5981 136.547 14.9999 135.948 14.2337 135.763L8.46079 134.37C6.31676 133.852 6.31676 130.803 8.46079 130.285L14.2337 128.892C14.9999 128.707 15.5981 128.108 15.7831 127.342L17.1767 121.569Z" fill="url(#paint17_linear_1111_10987)"/>
<path d="M220.249 187.43C220.766 185.286 223.816 185.286 224.334 187.43L225.727 193.203C225.912 193.969 226.51 194.567 227.277 194.752L233.05 196.146C235.194 196.663 235.194 199.713 233.05 200.231L227.277 201.624C226.51 201.809 225.912 202.407 225.727 203.174L224.334 208.947C223.816 211.091 220.766 211.091 220.249 208.947L218.855 203.174C218.67 202.407 218.072 201.809 217.306 201.624L211.533 200.231C209.389 199.713 209.389 196.663 211.533 196.146L217.306 194.752C218.072 194.567 218.67 193.969 218.855 193.203L220.249 187.43Z" fill="url(#paint18_linear_1111_10987)"/>
<path fill-rule="evenodd" clip-rule="evenodd" d="M45.3969 73.763C47.5989 73.763 49.3841 71.9779 49.3841 69.7758C49.3841 67.5738 47.5989 65.7886 45.3969 65.7886C43.1948 65.7886 41.4096 67.5738 41.4096 69.7758C41.4096 71.9779 43.1948 73.763 45.3969 73.763ZM45.3969 76.7534C49.2505 76.7534 52.3745 73.6295 52.3745 69.7758C52.3745 65.9222 49.2505 62.7982 45.3969 62.7982C41.5432 62.7982 38.4192 65.9222 38.4192 69.7758C38.4192 73.6295 41.5432 76.7534 45.3969 76.7534Z" fill="url(#paint19_linear_1111_10987)"/>
<path d="M29.3485 176.524C29.0155 175.218 30.2212 174.041 31.5188 174.406L39.0327 176.518C40.3302 176.882 40.7465 178.515 39.7819 179.456L34.1963 184.908C33.2318 185.849 31.6098 185.393 31.2768 184.087L29.3485 176.524Z" fill="url(#paint20_linear_1111_10987)"/>
<path d="M236.404 148.863C237.711 148.532 238.886 149.739 238.52 151.036L236.398 158.548C236.032 159.845 234.399 160.259 233.459 159.293L228.015 153.7C227.074 152.735 227.532 151.113 228.839 150.782L236.404 148.863Z" fill="url(#paint21_linear_1111_10987)"/>
<path fill-rule="evenodd" clip-rule="evenodd" d="M210.507 65.2037C212.276 65.2037 213.71 63.7696 213.71 62.0005C213.71 60.2315 212.276 58.7974 210.507 58.7974C208.738 58.7974 207.304 60.2315 207.304 62.0005C207.304 63.7696 208.738 65.2037 210.507 65.2037ZM210.507 67.606C213.603 67.606 216.113 65.0964 216.113 62.0005C216.113 58.9047 213.603 56.395 210.507 56.395C207.411 56.395 204.902 58.9047 204.902 62.0005C204.902 65.0964 207.411 67.606 210.507 67.606Z" fill="url(#paint22_linear_1111_10987)"/>
<rect x="41.1633" y="109.45" width="172.886" height="11.8915" rx="5.94577" fill="url(#paint23_linear_1111_10987)"/>
<path d="M85.1811 19.9021C83.6066 26.2003 88.7068 39.4339 96.5794 40.4836C111.146 42.4259 108.471 25.3905 99.781 28.5921C89.4387 32.4024 99.7885 48.7012 113.959 52.3751" stroke="#5EC0D6" stroke-linecap="round" stroke-linejoin="round" stroke-dasharray="4 4"/>
<path d="M167.978 18.3124C176.636 35.1621 153.698 53.1512 147.348 56.4841" stroke="#5EC0D6" stroke-linecap="round" stroke-linejoin="round" stroke-dasharray="4 4"/>
<path d="M159.686 247.907C170.245 247.907 178.804 239.348 178.804 228.789C178.804 218.231 170.245 209.671 159.686 209.671C149.128 209.671 140.568 218.231 140.568 228.789C140.568 239.348 149.128 247.907 159.686 247.907Z" fill="#6FCFE4"/>
<path d="M159.622 238.427C164.927 238.427 169.227 234.127 169.227 228.822C169.227 223.518 164.927 219.218 159.622 219.218C154.318 219.218 150.017 223.518 150.017 228.822C150.017 234.127 154.318 238.427 159.622 238.427Z" fill="url(#paint24_linear_1111_10987)"/>
<defs>
<linearGradient id="paint0_linear_1111_10987" x1="128.811" y1="-1.55288" x2="130.96" y2="366.913" gradientUnits="userSpaceOnUse">
<stop stop-color="white" stop-opacity="0"/>
<stop offset="1" stop-color="#8EE2F4"/>
</linearGradient>
<linearGradient id="paint1_linear_1111_10987" x1="64.9464" y1="144.667" x2="107.615" y2="187.074" gradientUnits="userSpaceOnUse">
<stop stop-color="white"/>
<stop offset="1" stop-color="#8EE2F4"/>
</linearGradient>
<linearGradient id="paint2_linear_1111_10987" x1="284.557" y1="92.5809" x2="188.966" y2="94.3632" gradientUnits="userSpaceOnUse">
<stop stop-color="white"/>
<stop offset="1" stop-color="#8EE2F4"/>
</linearGradient>
<linearGradient id="paint3_linear_1111_10987" x1="75.6875" y1="65.2748" x2="191.772" y2="69.9907" gradientUnits="userSpaceOnUse">
<stop stop-color="#90E3F5"/>
<stop offset="1" stop-color="#41ACC4"/>
</linearGradient>
<linearGradient id="paint4_linear_1111_10987" x1="106.601" y1="58.2245" x2="106.601" y2="79.4752" gradientUnits="userSpaceOnUse">
<stop stop-color="#CCF6FF"/>
<stop offset="1" stop-color="#B9ECF8"/>
</linearGradient>
<linearGradient id="paint5_linear_1111_10987" x1="169.299" y1="58.2245" x2="169.299" y2="79.4752" gradientUnits="userSpaceOnUse">
<stop stop-color="#92DDEC"/>
<stop offset="1" stop-color="#6CCFE3"/>
</linearGradient>
<linearGradient id="paint6_linear_1111_10987" x1="112.184" y1="131.987" x2="213.356" y2="133.586" gradientUnits="userSpaceOnUse">
<stop offset="0.392237" stop-color="#77D3E6"/>
<stop offset="1" stop-color="#E9FCFF"/>
</linearGradient>
<linearGradient id="paint7_linear_1111_10987" x1="95.1329" y1="118.139" x2="133.136" y2="128.043" gradientUnits="userSpaceOnUse">
<stop stop-color="#E9FBFF"/>
<stop offset="1" stop-color="#BCF3FF"/>
</linearGradient>
<linearGradient id="paint8_linear_1111_10987" x1="46.4679" y1="131.529" x2="209.981" y2="133.483" gradientUnits="userSpaceOnUse">
<stop stop-color="#AFF1FF"/>
<stop offset="1" stop-color="#65C8DE"/>
</linearGradient>
<linearGradient id="paint9_linear_1111_10987" x1="88.153" y1="233.622" x2="115.906" y2="234.061" gradientUnits="userSpaceOnUse">
<stop stop-color="white"/>
<stop offset="1" stop-color="#BCF3FF"/>
</linearGradient>
<linearGradient id="paint10_linear_1111_10987" x1="46.4679" y1="131.529" x2="209.981" y2="133.483" gradientUnits="userSpaceOnUse">
<stop stop-color="#AFF1FF"/>
<stop offset="1" stop-color="#65C8DE"/>
</linearGradient>
<linearGradient id="paint11_linear_1111_10987" x1="-0.329583" y1="38.2111" x2="15.5329" y2="38.2651" gradientUnits="userSpaceOnUse">
<stop stop-color="#62C9E0"/>
<stop offset="1" stop-color="#62C9E0"/>
</linearGradient>
<linearGradient id="paint12_linear_1111_10987" x1="-0.329583" y1="38.2111" x2="15.5329" y2="38.2651" gradientUnits="userSpaceOnUse">
<stop stop-color="#62C9E0"/>
<stop offset="1" stop-color="#62C9E0"/>
</linearGradient>
<linearGradient id="paint13_linear_1111_10987" x1="-0.329583" y1="38.2111" x2="15.5329" y2="38.2651" gradientUnits="userSpaceOnUse">
<stop stop-color="#62C9E0"/>
<stop offset="1" stop-color="#62C9E0"/>
</linearGradient>
<linearGradient id="paint14_linear_1111_10987" x1="-0.329583" y1="38.2111" x2="15.5329" y2="38.2651" gradientUnits="userSpaceOnUse">
<stop stop-color="#62C9E0"/>
<stop offset="1" stop-color="#62C9E0"/>
</linearGradient>
<linearGradient id="paint15_linear_1111_10987" x1="159.422" y1="7.97531" x2="172.695" y2="8.06879" gradientUnits="userSpaceOnUse">
<stop stop-color="#90E3F5"/>
<stop offset="1" stop-color="#65C8DE"/>
</linearGradient>
<linearGradient id="paint16_linear_1111_10987" x1="84.5959" y1="8.92432" x2="93.103" y2="18.0829" gradientUnits="userSpaceOnUse">
<stop stop-color="#90E3F5"/>
<stop offset="1" stop-color="#65C8DE"/>
</linearGradient>
<linearGradient id="paint17_linear_1111_10987" x1="-0.0435337" y1="121.979" x2="38.6471" y2="122.231" gradientUnits="userSpaceOnUse">
<stop stop-color="#90E3F5"/>
<stop offset="1" stop-color="#65C8DE"/>
</linearGradient>
<linearGradient id="paint18_linear_1111_10987" x1="203.029" y1="187.84" x2="241.719" y2="188.091" gradientUnits="userSpaceOnUse">
<stop stop-color="#90E3F5"/>
<stop offset="1" stop-color="#65C8DE"/>
</linearGradient>
<linearGradient id="paint19_linear_1111_10987" x1="38.4034" y1="66.0189" x2="52.4504" y2="66.1101" gradientUnits="userSpaceOnUse">
<stop stop-color="#90E3F5"/>
<stop offset="1" stop-color="#65C8DE"/>
</linearGradient>
<linearGradient id="paint20_linear_1111_10987" x1="25.4371" y1="181.837" x2="37.0471" y2="170.652" gradientUnits="userSpaceOnUse">
<stop stop-color="#90E3F5"/>
<stop offset="1" stop-color="#65C8DE"/>
</linearGradient>
<linearGradient id="paint21_linear_1111_10987" x1="231.097" y1="144.945" x2="242.267" y2="156.57" gradientUnits="userSpaceOnUse">
<stop stop-color="#90E3F5"/>
<stop offset="1" stop-color="#65C8DE"/>
</linearGradient>
<linearGradient id="paint22_linear_1111_10987" x1="204.889" y1="58.9824" x2="216.174" y2="59.0556" gradientUnits="userSpaceOnUse">
<stop stop-color="#90E3F5"/>
<stop offset="1" stop-color="#65C8DE"/>
</linearGradient>
<linearGradient id="paint23_linear_1111_10987" x1="221.824" y1="115.853" x2="38.3884" y2="83.5398" gradientUnits="userSpaceOnUse">
<stop stop-color="#63C8DE"/>
<stop offset="1" stop-color="#52D2EE"/>
</linearGradient>
<linearGradient id="paint24_linear_1111_10987" x1="149.441" y1="233.622" x2="177.194" y2="234.061" gradientUnits="userSpaceOnUse">
<stop stop-color="white"/>
<stop offset="1" stop-color="#BCF3FF"/>
</linearGradient>
</defs>
</svg>
